<mxfile host="app.diagrams.net" modified="2021-12-20T02:50:49.689Z" agent="5.0 (Windows NT 10.0; Win64; x64) AppleWebKit/537.36 (KHTML, like Gecko) Chrome/92.0.4515.131 Safari/537.36" etag="c3wLVHzE8HWfDTvElSHZ" version="15.9.6" type="github">
  <diagram id="o_FG6x83rMj4bbBXFvY_" name="第 1 页">
    <mxGraphModel dx="1038" dy="647" grid="1" gridSize="10" guides="1" tooltips="1" connect="1" arrows="1" fold="1" page="1" pageScale="1" pageWidth="827" pageHeight="1169" math="0" shadow="0">
      <root>
        <mxCell id="0" />
        <mxCell id="1" parent="0" />
      </root>
    </mxGraphModel>
  </diagram>
</mxfile>
